<?xml version="1.0" standalone="no"?>
<!DOCTYPE svg PUBLIC "-//W3C//DTD SVG 20010904//EN"
 "http://www.w3.org/TR/2001/REC-SVG-20010904/DTD/svg10.dtd">
<svg version="1.0" xmlns="http://www.w3.org/2000/svg"
 width="300.000000pt" height="324.000000pt" viewBox="0 0 300.000000 324.000000"
 preserveAspectRatio="xMidYMid meet">
<metadata>
Created by potrace 1.10, written by Peter Selinger 2001-2011
</metadata>
<g transform="translate(0.000000,324.000000) scale(0.050000,-0.050000)"
fill="#000000" stroke="none">
<path d="M2840 6400 c-421 -22 -924 -186 -1350 -440 -91 -54 -199 -102 -250
-110 -397 -65 -680 -343 -680 -668 0 -79 -14 -118 -72 -205 -436 -646 -551
-1696 -275 -2512 41 -123 303 -647 393 -787 237 -369 796 -809 1259 -991 l135
-53 0 -88 c0 -229 267 -454 565 -476 l125 -8 -127 19 c-705 111 -707 691 -3
915 125 40 302 77 240 51 -186 -80 -381 -275 -395 -396 -32 -281 351 -282 652
-3 219 203 191 614 -62 913 -402 474 -471 774 -252 1093 142 207 239 200 329
-24 l65 -160 -46 -50 c-84 -92 -90 -119 -60 -295 49 -282 145 -480 322 -666
136 -143 164 -214 178 -453 31 -504 -187 -868 -547 -916 -127 -18 -148 -27
-64 -28 168 -1 407 145 515 315 39 62 73 116 76 120 3 3 81 23 174 43 196 43
641 204 719 261 30 21 80 39 111 39 74 0 131 42 209 156 35 52 132 162 215
244 420 417 641 730 772 1092 202 557 258 1151 156 1641 -35 173 -36 176 -16
380 36 365 -153 691 -492 852 -54 26 -126 87 -180 153 -229 280 -439 450 -754
610 -57 28 -146 79 -198 112 -347 220 -895 346 -1387 320z m690 -333 c659
-240 900 -1972 316 -2274 -78 -40 -335 -313 -384 -407 -60 -116 -100 -131
-341 -129 -240 3 -597 74 -623 123 -8 17 -34 72 -58 123 -83 185 -227 313
-408 365 -267 77 -201 1046 112 1655 243 473 887 726 1386 544z m-1897 -277
c97 -40 130 -106 123 -243 l-6 -117 -34 74 c-38 85 -120 128 -302 158 -290 48
-553 -201 -586 -555 l-13 -142 -103 -10 c-131 -13 -125 -20 -130 143 -10 360
194 614 571 707 122 31 390 22 480 -15z m3097 -127 c85 -39 338 -294 320 -323
-6 -9 -35 -22 -65 -29 -30 -7 -77 -29 -104 -50 -48 -36 -50 -36 -130 16 -133
86 -308 66 -434 -51 -62 -58 -65 -55 -106 121 -47 203 -47 200 104 280 157 83
287 94 415 36z m-2858 -488 c-8 -58 -19 -159 -25 -225 -9 -85 -25 -134 -57
-170 -77 -84 -103 -157 -197 -545 -51 -206 -107 -398 -125 -426 -89 -135 -603
-341 -725 -290 -168 69 -422 606 -422 891 -1 391 494 607 799 349 l50 -42 -50
13 c-27 7 -119 18 -203 24 l-153 11 -88 -88 c-168 -168 -157 -323 44 -635 104
-161 115 -162 386 -35 273 129 256 103 323 493 94 548 160 697 330 749 130 40
128 42 113 -74z m3484 9 c440 -198 633 -809 353 -1121 -165 -183 -420 -250
-652 -171 -121 41 -404 49 -712 21 -220 -20 -213 -35 -107 234 105 267 99 265
312 123 396 -266 711 -233 897 94 228 400 -342 873 -674 559 l-76 -73 34 90
c99 256 366 360 625 244z m-183 -294 c72 -47 66 -330 -9 -391 -126 -102 -395
-154 -521 -101 l-67 28 107 34 c294 92 398 221 307 380 -62 108 48 138 183 50z
m-4173 -230 c0 -32 181 -139 276 -163 91 -23 90 -22 42 -152 l-17 -45 -101 40
c-250 99 -480 262 -439 311 28 34 239 41 239 9z m786 -872 c117 -56 133 -199
36 -324 l-32 -42 -140 39 c-76 21 -173 39 -215 39 -107 0 -95 25 70 147 80 59
158 122 173 140 33 40 26 40 108 1z m3290 -18 c586 -140 789 -765 387 -1195
-207 -222 -273 -237 -289 -69 -7 70 -25 166 -41 213 -27 77 -27 100 2 216 87
353 -38 564 -358 604 -146 18 -206 12 -457 -48 -190 -45 -180 -52 -180 127 l0
158 185 20 c231 26 586 14 751 -26z m-1046 -88 c28 -169 -45 -302 -168 -302
-65 0 -239 -52 -275 -82 -77 -65 21 130 121 239 192 210 302 260 322 145z
m-1811 -33 c91 -86 159 -205 193 -339 12 -51 10 -56 -14 -36 -16 13 -100 42
-187 66 -87 23 -164 46 -172 51 -57 35 -10 349 53 349 16 0 73 -41 127 -91z
m-612 -276 c108 -33 223 -85 296 -135 269 -183 363 -196 565 -78 164 96 148
95 300 18 191 -96 190 -103 -23 -261 -322 -239 -565 -229 -884 39 -305 256
-584 338 -798 235 -302 -146 -432 -725 -196 -874 131 -82 451 -18 600 120 l58
53 -14 -50 c-93 -329 -609 -581 -875 -427 -137 80 -293 423 -327 720 -60 533
591 853 1298 640z m2984 -155 c305 -112 488 -397 489 -758 0 -260 -43 -300
-205 -190 l-104 70 6 139 c26 557 -445 783 -940 452 l-72 -49 -157 103 -156
102 89 27 c49 15 170 53 269 86 291 95 557 101 781 18z m-3185 -118 c60 -23
144 -75 188 -116 44 -42 189 -133 323 -202 267 -139 512 -362 599 -546 96
-202 68 -918 -40 -1030 -137 -141 -672 -233 -950 -163 -333 84 -406 617 -129
937 l44 50 -16 -60 c-79 -313 80 -567 340 -541 401 40 498 102 532 344 38 268
-42 466 -243 604 -98 68 -451 252 -542 283 -132 45 -247 212 -281 405 -16 91
11 96 175 35z m1860 17 c221 -114 324 -279 306 -486 -73 -813 40 -1132 450
-1280 354 -127 725 229 646 622 -13 68 -201 211 -468 357 l-170 92 185 -7
c409 -16 806 -317 805 -609 -1 -266 -254 -815 -420 -913 -148 -87 -687 71
-888 262 -179 169 -370 571 -413 871 -62 425 -82 518 -151 681 l-72 174 55
129 c58 137 66 143 135 107z m1072 -213 c54 -106 181 -216 269 -232 l73 -14 0
-109 c0 -124 -6 -127 -136 -61 -169 86 -348 402 -271 479 21 20 24 18 65 -63z
m-275 -846 c82 -41 182 -48 307 -19 122 29 229 -105 207 -260 -14 -97 -354
-161 -467 -87 -102 67 -370 520 -370 627 0 9 56 -37 124 -103 68 -65 158 -136
199 -158z"/>
<path d="M2950 5272 c-253 -80 -301 -151 -287 -421 16 -295 117 -396 403 -403
458 -11 684 352 445 714 -88 132 -336 181 -561 110z"/>
</g>
</svg>
